Stretch vv(188.0-171.0)-(128.0-100.0)--58.2-0.0-(0.0-0.0).ufo
<glyph name="A" format="1">
  <advance width="723"/>
  <unicode hex="0041"/>
  <outline>
    <contour>
      <point x="266" y="0" type="line"/>
      <point x="361" y="355" type="line"/>
      <point x="456" y="0" type="line"/>
      <point x="685" y="0" type="line"/>
      <point x="455" y="700" type="line"/>
      <point x="267" y="700" type="line"/>
      <point x="37" y="0" type="line"/>
    </contour>
    <contour>
      <point x="597" y="79" type="line"/>
      <point x="597" y="203" type="line"/>
      <point x="126" y="203" type="line"/>
      <point x="126" y="79" type="line"/>
    </contour>
  </outline>
</glyph>
<glyph name="B" format="1">
  <advance width="798"/>
  <unicode hex="0042"/>
  <outline>
    <contour>
      <point x="323" y="303" type="line"/>
      <point x="398" y="303" type="line" smooth="yes"/>
      <point x="466" y="303"/>
      <point x="516" y="266"/>
      <point x="516" y="214" type="curve" smooth="yes"/>
      <point x="516" y="161"/>
      <point x="466" y="125"/>
      <point x="398" y="125" type="curve" smooth="yes"/>
      <point x="323" y="125" type="line"/>
    </contour>
    <contour>
      <point x="323" y="575" type="line"/>
      <point x="398" y="575" type="line" smooth="yes"/>
      <point x="466" y="575"/>
      <point x="516" y="542"/>
      <point x="516" y="493" type="curve" smooth="yes"/>
      <point x="516" y="442"/>
      <point x="466" y="406"/>
      <point x="398" y="406" type="curve" smooth="yes"/>
      <point x="323" y="406" type="line"/>
    </contour>
    <contour>
      <point x="398" y="303" type="line"/>
      <point x="598" y="303"/>
      <point x="734" y="381"/>
      <point x="734" y="500" type="curve" smooth="yes"/>
      <point x="734" y="618"/>
      <point x="600" y="700"/>
      <point x="407" y="700" type="curve" smooth="yes"/>
      <point x="98" y="700" type="line"/>
      <point x="98" y="303" type="line"/>
    </contour>
    <contour>
      <point x="407" y="0" type="line"/>
      <point x="598" y="0"/>
      <point x="734" y="86"/>
      <point x="734" y="208" type="curve" smooth="yes"/>
      <point x="734" y="329"/>
      <point x="600" y="406"/>
      <point x="398" y="406" type="curve" smooth="yes"/>
      <point x="98" y="406" type="line"/>
      <point x="98" y="0" type="line"/>
    </contour>
  </outline>
</glyph>
<glyph name="C" format="1">
  <advance width="735"/>
  <unicode hex="0043"/>
  <outline>
    <contour>
      <point x="673" y="180" type="curve" smooth="yes"/>
      <point x="673" y="236" type="line"/>
      <point x="448" y="236" type="line"/>
      <point x="448" y="180" type="line" smooth="yes"/>
      <point x="448" y="136"/>
      <point x="427" y="116"/>
      <point x="376" y="116" type="curve" smooth="yes"/>
      <point x="326" y="116"/>
      <point x="305" y="136"/>
      <point x="305" y="180" type="curve" smooth="yes"/>
      <point x="305" y="520" type="line" smooth="yes"/>
      <point x="305" y="562"/>
      <point x="326" y="585"/>
      <point x="376" y="585" type="curve" smooth="yes"/>
      <point x="426" y="585"/>
      <point x="448" y="562"/>
      <point x="448" y="520" type="curve" smooth="yes"/>
      <point x="448" y="464" type="line"/>
      <point x="673" y="464" type="line"/>
      <point x="673" y="520" type="line" smooth="yes"/>
      <point x="673" y="633"/>
      <point x="552" y="707"/>
      <point x="376" y="707" type="curve" smooth="yes"/>
      <point x="200" y="707"/>
      <point x="80" y="633"/>
      <point x="80" y="520" type="curve" smooth="yes"/>
      <point x="80" y="180" type="line" smooth="yes"/>
      <point x="80" y="67"/>
      <point x="200" y="-8"/>
      <point x="376" y="-8" type="curve" smooth="yes"/>
      <point x="552" y="-8"/>
      <point x="673" y="67"/>
    </contour>
  </outline>
</glyph>
<glyph name="D" format="1">
  <advance width="768"/>
  <unicode hex="0044"/>
  <outline>
    <contour>
      <point x="394" y="0" type="line"/>
      <point x="572" y="0"/>
      <point x="691" y="76"/>
      <point x="691" y="190" type="curve" smooth="yes"/>
      <point x="691" y="510" type="line" smooth="yes"/>
      <point x="691" y="624"/>
      <point x="572" y="700"/>
      <point x="394" y="700" type="curve" smooth="yes"/>
      <point x="98" y="700" type="line"/>
      <point x="98" y="0" type="line"/>
    </contour>
    <contour>
      <point x="323" y="575" type="line"/>
      <point x="394" y="575" type="line" smooth="yes"/>
      <point x="446" y="575"/>
      <point x="466" y="554"/>
      <point x="466" y="510" type="curve" smooth="yes"/>
      <point x="466" y="190" type="line" smooth="yes"/>
      <point x="466" y="147"/>
      <point x="446" y="126"/>
      <point x="394" y="126" type="curve" smooth="yes"/>
      <point x="323" y="126" type="line"/>
    </contour>
  </outline>
</glyph>
<glyph name="E" format="1">
  <advance width="747"/>
  <unicode hex="0045"/>
  <outline>
    <contour>
      <point x="687" y="0" type="line"/>
      <point x="687" y="126" type="line"/>
      <point x="323" y="126" type="line"/>
      <point x="323" y="575" type="line"/>
      <point x="687" y="575" type="line"/>
      <point x="687" y="700" type="line"/>
      <point x="98" y="700" type="line"/>
      <point x="98" y="0" type="line"/>
    </contour>
    <contour>
      <point x="559" y="288" type="line"/>
      <point x="559" y="413" type="line"/>
      <point x="112" y="413" type="line"/>
      <point x="112" y="288" type="line"/>
    </contour>
  </outline>
</glyph>
<glyph name="F" format="1">
  <advance width="730"/>
  <unicode hex="0046"/>
  <outline>
    <contour>
      <point x="323" y="0" type="line"/>
      <point x="323" y="575" type="line"/>
      <point x="689" y="575" type="line"/>
      <point x="689" y="700" type="line"/>
      <point x="98" y="700" type="line"/>
      <point x="98" y="0" type="line"/>
    </contour>
    <contour>
      <point x="559" y="288" type="line"/>
      <point x="559" y="413" type="line"/>
      <point x="112" y="413" type="line"/>
      <point x="112" y="288" type="line"/>
    </contour>
  </outline>
</glyph>
<glyph name="G" format="1">
  <advance width="746"/>
  <unicode hex="0047"/>
  <outline>
    <contour>
      <point x="673" y="180" type="curve" smooth="yes"/>
      <point x="673" y="413" type="line"/>
      <point x="388" y="413" type="line"/>
      <point x="388" y="288" type="line"/>
      <point x="448" y="288" type="line"/>
      <point x="448" y="180" type="line" smooth="yes"/>
      <point x="448" y="137"/>
      <point x="429" y="116"/>
      <point x="376" y="116" type="curve" smooth="yes"/>
      <point x="323" y="116"/>
      <point x="305" y="137"/>
      <point x="305" y="180" type="curve" smooth="yes"/>
      <point x="305" y="520" type="line" smooth="yes"/>
      <point x="305" y="563"/>
      <point x="326" y="585"/>
      <point x="376" y="585" type="curve" smooth="yes"/>
      <point x="427" y="585"/>
      <point x="448" y="563"/>
      <point x="448" y="520" type="curve"/>
      <point x="673" y="520" type="line"/>
      <point x="673" y="632"/>
      <point x="552" y="708"/>
      <point x="376" y="708" type="curve" smooth="yes"/>
      <point x="200" y="708"/>
      <point x="80" y="632"/>
      <point x="80" y="520" type="curve" smooth="yes"/>
      <point x="80" y="180" type="line" smooth="yes"/>
      <point x="80" y="68"/>
      <point x="200" y="-8"/>
      <point x="376" y="-8" type="curve" smooth="yes"/>
      <point x="552" y="-8"/>
      <point x="673" y="68"/>
    </contour>
  </outline>
</glyph>
<glyph name="H" format="1">
  <advance width="789"/>
  <unicode hex="0048"/>
  <outline>
    <contour>
      <point x="691" y="0" type="line"/>
      <point x="691" y="700" type="line"/>
      <point x="466" y="700" type="line"/>
      <point x="466" y="0" type="line"/>
    </contour>
    <contour>
      <point x="323" y="0" type="line"/>
      <point x="323" y="700" type="line"/>
      <point x="98" y="700" type="line"/>
      <point x="98" y="0" type="line"/>
    </contour>
    <contour>
      <point x="670" y="288" type="line"/>
      <point x="670" y="413" type="line"/>
      <point x="119" y="413" type="line"/>
      <point x="119" y="288" type="line"/>
    </contour>
  </outline>
</glyph>
<glyph name="I" format="1">
  <advance width="422"/>
  <unicode hex="0049"/>
  <outline>
    <contour>
      <point x="323" y="0" type="line"/>
      <point x="323" y="700" type="line"/>
      <point x="98" y="700" type="line"/>
      <point x="98" y="0" type="line"/>
    </contour>
  </outline>
</glyph>
<glyph name="J" format="1">
  <advance width="720"/>
  <unicode hex="004A"/>
  <outline>
    <contour>
      <point x="630" y="180" type="curve" smooth="yes"/>
      <point x="630" y="699" type="line"/>
      <point x="405" y="699" type="line"/>
      <point x="405" y="180" type="line"/>
      <point x="405" y="136"/>
      <point x="387" y="116"/>
      <point x="338" y="116" type="curve" smooth="yes"/>
      <point x="290" y="116"/>
      <point x="271" y="136"/>
      <point x="271" y="180" type="curve" smooth="yes"/>
      <point x="271" y="271" type="line"/>
      <point x="46" y="271" type="line"/>
      <point x="46" y="180" type="line" smooth="yes"/>
      <point x="46" y="65"/>
      <point x="164" y="-10"/>
      <point x="338" y="-10" type="curve" smooth="yes"/>
      <point x="513" y="-10"/>
      <point x="630" y="65"/>
    </contour>
  </outline>
</glyph>
<glyph name="K" format="1">
  <advance width="753"/>
  <unicode hex="004B"/>
  <outline>
    <contour>
      <point x="717" y="0" type="line"/>
      <point x="442" y="350" type="line"/>
      <point x="717" y="700" type="line"/>
      <point x="443" y="700" type="line"/>
      <point x="179" y="350" type="line"/>
      <point x="443" y="0" type="line"/>
    </contour>
    <contour>
      <point x="323" y="0" type="line"/>
      <point x="323" y="700" type="line"/>
      <point x="98" y="700" type="line"/>
      <point x="98" y="0" type="line"/>
    </contour>
  </outline>
</glyph>
<glyph name="L" format="1">
  <advance width="715"/>
  <unicode hex="004C"/>
  <outline>
    <contour>
      <point x="674" y="0" type="line"/>
      <point x="674" y="126" type="line"/>
      <point x="321" y="126" type="line"/>
      <point x="321" y="700" type="line"/>
      <point x="98" y="700" type="line"/>
      <point x="98" y="0" type="line"/>
    </contour>
  </outline>
</glyph>
<glyph name="M" format="1">
  <advance width="907"/>
  <unicode hex="004D"/>
  <outline>
    <contour>
      <point x="325" y="0" type="line"/>
      <point x="325" y="403" type="line"/>
      <point x="453" y="223" type="line"/>
      <point x="581" y="403" type="line"/>
      <point x="581" y="0" type="line"/>
      <point x="809" y="0" type="line"/>
      <point x="809" y="700" type="line"/>
      <point x="626" y="700" type="line"/>
      <point x="453" y="479" type="line"/>
      <point x="281" y="700" type="line"/>
      <point x="98" y="700" type="line"/>
      <point x="98" y="0" type="line"/>
    </contour>
  </outline>
</glyph>
<glyph name="N" format="1">
  <advance width="789"/>
  <unicode hex="004E"/>
  <outline>
    <contour>
      <point x="323" y="0" type="line"/>
      <point x="323" y="335" type="line"/>
      <point x="499" y="0" type="line"/>
      <point x="691" y="0" type="line"/>
      <point x="691" y="700" type="line"/>
      <point x="466" y="700" type="line"/>
      <point x="466" y="365" type="line"/>
      <point x="290" y="700" type="line"/>
      <point x="98" y="700" type="line"/>
      <point x="98" y="0" type="line"/>
    </contour>
  </outline>
</glyph>
<glyph name="P" format="1">
  <advance width="746"/>
  <unicode hex="0050"/>
  <outline>
    <contour>
      <point x="323" y="0" type="line"/>
      <point x="323" y="572" type="line"/>
      <point x="376" y="572" type="line" smooth="yes"/>
      <point x="433" y="572"/>
      <point x="476" y="539"/>
      <point x="476" y="492" type="curve" smooth="yes"/>
      <point x="476" y="444"/>
      <point x="433" y="410"/>
      <point x="376" y="410" type="curve" smooth="yes"/>
      <point x="121" y="410" type="line"/>
      <point x="121" y="285" type="line"/>
      <point x="379" y="285" type="line" smooth="yes"/>
      <point x="569" y="285"/>
      <point x="699" y="369"/>
      <point x="699" y="491" type="curve" smooth="yes"/>
      <point x="699" y="613"/>
      <point x="566" y="697"/>
      <point x="376" y="697" type="curve" smooth="yes"/>
      <point x="98" y="697" type="line"/>
      <point x="98" y="0" type="line"/>
    </contour>
  </outline>
</glyph>
<glyph name="Q" format="1">
  <advance width="750"/>
  <unicode hex="0051"/>
  <outline>
    <contour>
      <point x="671" y="180" type="curve" smooth="yes"/>
      <point x="671" y="520" type="line" smooth="yes"/>
      <point x="671" y="625"/>
      <point x="540" y="708"/>
      <point x="375" y="708" type="curve" smooth="yes"/>
      <point x="209" y="708"/>
      <point x="78" y="625"/>
      <point x="78" y="520" type="curve" smooth="yes"/>
      <point x="78" y="180" type="line" smooth="yes"/>
      <point x="78" y="75"/>
      <point x="209" y="-8"/>
      <point x="375" y="-8" type="curve" smooth="yes"/>
      <point x="540" y="-8"/>
      <point x="671" y="75"/>
    </contour>
    <contour>
      <point x="303" y="180" type="curve" smooth="yes"/>
      <point x="303" y="520" type="line" smooth="yes"/>
      <point x="303" y="555"/>
      <point x="335" y="583"/>
      <point x="375" y="583" type="curve" smooth="yes"/>
      <point x="415" y="583"/>
      <point x="446" y="555"/>
      <point x="446" y="520" type="curve" smooth="yes"/>
      <point x="446" y="180" type="line" smooth="yes"/>
      <point x="446" y="144"/>
      <point x="413" y="116"/>
      <point x="375" y="116" type="curve" smooth="yes"/>
      <point x="336" y="116"/>
      <point x="303" y="144"/>
    </contour>
  </outline>
</glyph>
<glyph name="R" format="1">
  <advance width="756"/>
  <unicode hex="0052"/>
  <outline>
    <contour>
      <point x="321" y="1" type="line"/>
      <point x="321" y="585" type="line"/>
      <point x="374" y="585" type="line" smooth="yes"/>
      <point x="442" y="585"/>
      <point x="474" y="556"/>
      <point x="474" y="498" type="curve" smooth="yes"/>
      <point x="474" y="438"/>
      <point x="442" y="408"/>
      <point x="374" y="408" type="curve" smooth="yes"/>
      <point x="119" y="408" type="line"/>
      <point x="119" y="282" type="line"/>
      <point x="376" y="283" type="line" smooth="yes"/>
      <point x="569" y="285"/>
      <point x="697" y="369"/>
      <point x="697" y="497" type="curve" smooth="yes"/>
      <point x="697" y="625"/>
      <point x="569" y="710"/>
      <point x="374" y="710" type="curve" smooth="yes"/>
      <point x="98" y="710" type="line"/>
      <point x="98" y="1" type="line"/>
    </contour>
    <contour>
      <point x="718" y="1" type="line"/>
      <point x="473" y="397" type="line"/>
      <point x="267" y="350" type="line"/>
      <point x="476" y="1" type="line"/>
    </contour>
  </outline>
</glyph>
<glyph name="S" format="1">
  <advance width="715"/>
  <unicode hex="0053"/>
  <outline>
    <contour>
      <point x="653" y="179" type="curve" smooth="yes"/>
      <point x="653" y="297"/>
      <point x="521" y="358"/>
      <point x="418" y="404" type="curve" smooth="yes"/>
      <point x="286" y="461"/>
      <point x="285" y="483"/>
      <point x="285" y="522" type="curve" smooth="yes"/>
      <point x="285" y="564"/>
      <point x="306" y="585"/>
      <point x="352" y="585" type="curve" smooth="yes"/>
      <point x="401" y="585"/>
      <point x="422" y="563"/>
      <point x="422" y="520" type="curve" smooth="yes"/>
      <point x="422" y="449" type="line"/>
      <point x="644" y="449" type="line"/>
      <point x="644" y="520" type="line" smooth="yes"/>
      <point x="644" y="633"/>
      <point x="527" y="708"/>
      <point x="352" y="708" type="curve" smooth="yes"/>
      <point x="180" y="708"/>
      <point x="61" y="634"/>
      <point x="61" y="521" type="curve" smooth="yes"/>
      <point x="61" y="404"/>
      <point x="196" y="343"/>
      <point x="292" y="299" type="curve" smooth="yes"/>
      <point x="433" y="239"/>
      <point x="428" y="217"/>
      <point x="428" y="178" type="curve" smooth="yes"/>
      <point x="428" y="139"/>
      <point x="408" y="116"/>
      <point x="358" y="116" type="curve" smooth="yes"/>
      <point x="311" y="116"/>
      <point x="292" y="134"/>
      <point x="292" y="180" type="curve" smooth="yes"/>
      <point x="292" y="251" type="line"/>
      <point x="70" y="251" type="line"/>
      <point x="70" y="180" type="line" smooth="yes"/>
      <point x="70" y="64"/>
      <point x="184" y="-8"/>
      <point x="360" y="-8" type="curve" smooth="yes"/>
      <point x="534" y="-8"/>
      <point x="653" y="69"/>
    </contour>
  </outline>
</glyph>
<glyph name="T" format="1">
  <advance width="674"/>
  <unicode hex="0054"/>
  <outline>
    <contour>
      <point x="443" y="0" type="line"/>
      <point x="443" y="690" type="line"/>
      <point x="221" y="690" type="line"/>
      <point x="221" y="0" type="line"/>
    </contour>
    <contour>
      <point x="633" y="575" type="line"/>
      <point x="633" y="700" type="line"/>
      <point x="40" y="700" type="line"/>
      <point x="40" y="575" type="line"/>
    </contour>
  </outline>
</glyph>
<glyph name="U" format="1">
  <advance width="768"/>
  <unicode hex="0055"/>
  <outline>
    <contour>
      <point x="680" y="180" type="curve" smooth="yes"/>
      <point x="680" y="699" type="line"/>
      <point x="455" y="699" type="line"/>
      <point x="455" y="180" type="line" smooth="yes"/>
      <point x="455" y="136"/>
      <point x="434" y="116"/>
      <point x="384" y="116" type="curve" smooth="yes"/>
      <point x="333" y="116"/>
      <point x="312" y="136"/>
      <point x="312" y="180" type="curve" smooth="yes"/>
      <point x="312" y="699" type="line"/>
      <point x="87" y="699" type="line"/>
      <point x="87" y="180" type="line" smooth="yes"/>
      <point x="87" y="67"/>
      <point x="208" y="-10"/>
      <point x="384" y="-10" type="curve" smooth="yes"/>
      <point x="560" y="-10"/>
      <point x="680" y="67"/>
    </contour>
  </outline>
</glyph>
<glyph name="V" format="1">
  <advance width="765"/>
  <unicode hex="0056"/>
  <outline>
    <contour>
      <point x="474" y="0" type="line"/>
      <point x="729" y="700" type="line"/>
      <point x="499" y="700" type="line"/>
      <point x="382" y="291" type="line"/>
      <point x="264" y="700" type="line"/>
      <point x="35" y="700" type="line"/>
      <point x="290" y="0" type="line"/>
    </contour>
  </outline>
</glyph>
<glyph name="W" format="1">
  <advance width="954"/>
  <unicode hex="0057"/>
  <outline>
    <contour>
      <point x="420" y="0" type="line"/>
      <point x="477" y="287" type="line"/>
      <point x="533" y="0" type="line"/>
      <point x="726" y="0" type="line"/>
      <point x="914" y="700" type="line"/>
      <point x="687" y="700" type="line"/>
      <point x="630" y="413" type="line"/>
      <point x="573" y="700" type="line"/>
      <point x="380" y="700" type="line"/>
      <point x="323" y="413" type="line"/>
      <point x="267" y="700" type="line"/>
      <point x="40" y="700" type="line"/>
      <point x="227" y="0" type="line"/>
    </contour>
  </outline>
</glyph>
<glyph name="X" format="1">
  <advance width="785"/>
  <unicode hex="0058"/>
  <outline>
    <contour>
      <point x="502" y="700" type="line"/>
      <point x="744" y="700" type="line"/>
      <point x="283" y="0" type="line"/>
      <point x="40" y="0" type="line"/>
    </contour>
    <contour>
      <point x="40" y="700" type="line"/>
      <point x="283" y="700" type="line"/>
      <point x="744" y="0" type="line"/>
      <point x="502" y="0" type="line"/>
    </contour>
  </outline>
</glyph>
<glyph name="Y" format="1">
  <advance width="779"/>
  <unicode hex="0059"/>
  <outline>
    <contour>
      <point x="745" y="700" type="line"/>
      <point x="499" y="700" type="line"/>
      <point x="389" y="510" type="line"/>
      <point x="281" y="700" type="line"/>
      <point x="34" y="700" type="line"/>
      <point x="389" y="199" type="line"/>
    </contour>
    <contour>
      <point x="502" y="0" type="line"/>
      <point x="502" y="403" type="line"/>
      <point x="277" y="403" type="line"/>
      <point x="277" y="0" type="line"/>
    </contour>
  </outline>
</glyph>
<glyph name="Z" format="1">
  <advance width="698"/>
  <unicode hex="005A"/>
  <outline>
    <contour>
      <point x="631" y="0" type="line"/>
      <point x="631" y="126" type="line"/>
      <point x="381" y="126" type="line"/>
      <point x="655" y="700" type="line"/>
      <point x="67" y="700" type="line"/>
      <point x="67" y="575" type="line"/>
      <point x="317" y="575" type="line"/>
      <point x="43" y="0" type="line"/>
    </contour>
  </outline>
</glyph>
